<?xml version="1.0" encoding="UTF-8"?>
<!DOCTYPE svg PUBLIC "-//W3C//DTD SVG 1.1//EN" "http://www.w3.org/Graphics/SVG/1.1/DTD/svg11.dtd">
<!-- Creator: CorelDRAW 2020 (64-Bit) -->
<svg xmlns="http://www.w3.org/2000/svg" xml:space="preserve" width="4.8in" height="2.88667in" version="1.1" style="shape-rendering:geometricPrecision; text-rendering:geometricPrecision; image-rendering:optimizeQuality; fill-rule:evenodd; clip-rule:evenodd"
viewBox="0 0 3428.57 2061.9"
 xmlns:xlink="http://www.w3.org/1999/xlink"
 xmlns:xodm="http://www.corel.com/coreldraw/odm/2003">
 <defs>
  <style type="text/css">
   <![CDATA[
    .fil8 {fill:none}
    .fil2 {fill:#FE5858}
    .fil5 {fill:#FFC414}
    .fil0 {fill:white}
    .fil4 {fill:black;fill-opacity:0.149020}
    .fil1 {fill:black;fill-opacity:0.149020}
    .fil7 {fill:url(#id1)}
    .fil3 {fill:url(#id2)}
    .fil6 {fill:url(#id3)}
   ]]>
  </style>
   <clipPath id="id0">
    <path d="M-0 0l3428.57 0 0 2061.9 -3428.57 0 0 -2061.9z"/>
   </clipPath>
  <linearGradient id="id1" gradientUnits="userSpaceOnUse" x1="1637.99" y1="465.76" x2="3356.75" y2="465.76">
   <stop offset="0" style="stop-opacity:1; stop-color:#FE5858"/>
   <stop offset="1" style="stop-opacity:1; stop-color:#EE9617"/>
  </linearGradient>
  <linearGradient id="id2" gradientUnits="userSpaceOnUse" xlink:href="#id1" x1="3421.4" y1="306.35" x2="728.31" y2="1631.74">
  </linearGradient>
  <linearGradient id="id3" gradientUnits="userSpaceOnUse" xlink:href="#id1" x1="-391.45" y1="1122.5" x2="3452.85" y2="1122.5">
  </linearGradient>
 </defs>
 <g id="Layer_x0020_1">
  <metadata id="CorelCorpID_0Corel-Layer"/>
  <polygon class="fil0" points="-0,0 3428.57,0 3428.57,2061.9 -0,2061.9 "/>
  <g style="clip-path:url(#id0)">
   <g id="_1950727898304">
    <path id="1" class="fil1" d="M614.29 -255.72l813.79 0c274.22,369.88 56.7,527.35 -17.05,666.67 -75.63,142.86 89.81,500 642.83,442.86 553.03,-57.14 576.66,-42.86 1020.97,176.19 339.36,167.3 571.15,467.92 661.74,600.63l0 427.94 -164.26 0c-64.85,-286.93 -304.67,-722.58 -681.22,-951.2 -550.25,-334.09 -756,260.4 -1296.68,186.7 -540.68,-73.7 -229.67,-658.35 -746.43,-1306.88 -81.8,-102.66 -159.99,-181.99 -233.69,-242.91z"/>
    <path class="fil2" d="M549.16 -221.43l813.79 0c274.22,369.88 56.7,527.35 -17.05,666.67 -75.63,142.86 89.81,500 642.83,442.86 553.03,-57.14 576.66,-42.86 1020.97,176.19 339.36,167.3 571.15,467.92 661.74,600.63l0 427.94 -164.26 0c-64.85,-286.93 -304.67,-722.58 -681.22,-951.2 -550.25,-334.09 -756,260.4 -1296.68,186.7 -540.68,-73.7 -229.67,-658.35 -746.43,-1306.88 -81.8,-102.66 -159.99,-181.99 -233.69,-242.91z"/>
    <path class="fil3" d="M502.09 -188.1l819.85 0c276.26,369.88 57.13,527.35 -17.18,666.67 -76.19,142.86 90.48,500 647.62,442.86 557.14,-57.14 580.95,-42.86 1028.57,176.19 341.88,167.3 575.4,467.92 666.66,600.63l0 427.94 -165.48 0c-65.34,-286.93 -306.94,-722.58 -686.29,-951.2 -554.35,-334.09 -761.63,260.4 -1306.34,186.7 -544.7,-73.7 -231.38,-658.35 -751.99,-1306.88 -82.41,-102.66 -161.18,-181.99 -235.43,-242.91z"/>
    <path class="fil4" d="M-134.31 -376.48c0,0 376,-280.04 896.6,368.48 520.61,648.52 207.28,1233.18 751.99,1306.88 544.71,73.7 751.99,-520.79 1306.34,-186.7 554.35,334.09 814.66,1110.36 660.4,1218.44 -154.25,108.08 -3543.02,304.61 -3774.4,-152.31 -231.38,-456.92 159.07,-2554.8 159.07,-2554.8z"/>
    <path class="fil5" d="M-159.08 -313.67c0,0 376,-280.04 896.6,368.48 520.61,648.52 207.28,1233.18 751.99,1306.88 544.71,73.7 751.99,-520.79 1306.34,-186.7 554.35,334.09 814.66,1110.36 660.4,1218.44 -154.25,108.08 -3543.02,304.61 -3774.4,-152.31 -231.38,-456.92 159.07,-2554.8 159.07,-2554.8z"/>
    <path class="fil6" d="M-161.9 -226.19c0,0 371.43,-271.43 885.71,357.14 514.29,628.57 204.76,1195.24 742.86,1266.67 538.09,71.43 742.86,-504.76 1290.48,-180.95 547.62,323.81 804.76,1076.19 652.38,1180.95 -152.38,104.76 -3500,295.24 -3728.57,-147.62 -228.57,-442.86 157.14,-2476.19 157.14,-2476.19z"/>
    <path class="fil2" d="M1760.1 89.53c0,0 -179.33,50.97 -174.28,272.7 5.05,221.73 161.65,481.69 495.06,387.39 333.41,-94.3 681.97,58.62 886.56,112.14 204.59,53.52 606.19,-298.19 368.77,-563.25 -237.43,-265.06 -1048.21,-254.86 -1576.1,-208.98z"/>
    <path class="fil7" d="M1802.38 114.29c0,0 -169.05,47.62 -164.29,254.76 4.76,207.14 152.38,450 466.66,361.9 314.29,-88.09 642.86,54.76 835.71,104.76 192.86,50 571.43,-278.57 347.62,-526.19 -223.81,-247.62 -988.1,-238.09 -1485.71,-195.24z"/>
   </g>
  </g>
  <polygon class="fil8" points="-0,0 3428.57,0 3428.57,2061.9 -0,2061.9 "/>
 </g>
</svg>
