<svg xmlns="http://www.w3.org/2000/svg" xmlns:xlink="http://www.w3.org/1999/xlink" width="4.8in" height="277.12" viewBox="0 0 4800 2886.67" shape-rendering="geometricPrecision" text-rendering="geometricPrecision" image-rendering="optimizeQuality" fill-rule="evenodd" clip-rule="evenodd"><defs><linearGradient id="a" gradientUnits="userSpaceOnUse" x1="5019.19" y1="861.79" x2="5368.21" y2="1210.8"><stop offset="0" stop-color="#fe5858"/><stop offset="1" stop-color="#ee9617"/></linearGradient><linearGradient id="e" gradientUnits="objectBoundingBox" xlink:href="#a" x1="26.861%" y1="39.471%" x2="73.14%" y2="60.529%"/><linearGradient id="d" gradientUnits="userSpaceOnUse" xlink:href="#a" x1="5488.15" y1="313.73" x2="4199.54" y2="-557.39"/><linearGradient id="c" gradientUnits="userSpaceOnUse" xlink:href="#a" x1="3877.4" y1="-650.07" x2="5810.29" y2="406.41"/><clipPath id="b"><path d="M0 0h4800v2886.67H0V0z"/></clipPath></defs><g clip-path="url(#b)"><path d="M6977.6-2255.59c284.37 284.37 284.37 749.69 0 1034.06L3744.14 2011.93c-284.37 284.37-749.69 284.37-1034.06 0-284.37-284.37-284.37-749.69 0-1034.06l3233.46-3233.46c284.37-284.37 749.7-284.37 1034.06 0z" fill="url(#c)" fill-opacity=".502"/><path d="M6862.63-2140.62c220.98 220.98 220.98 582.59 0 803.57l-3234.01 3234c-220.98 220.99-582.59 220.98-803.57 0-220.98-220.98-220.98-582.59 0-803.57l3234-3234c220.98-220.98 582.59-220.98 803.57 0z" fill="url(#d)"/><path d="M4266.7-1010.04h.01c85.18 85.19 85.18 224.57 0 309.76L2733.65 832.78c-85.19 85.18-224.57 85.18-309.76 0h-.01c-85.18-85.19-85.19-224.57 0-309.76l1533.06-1533.06c85.19-85.19 224.57-85.19 309.76 0z" fill="url(#e)"/><path d="M6415.41-185.42c95.98 95.98 95.98 253.04 0 349.02L4321 2258.01c-95.98 95.98-253.04 95.98-349.02 0-95.98-95.98-95.98-253.04 0-349.02L6066.39-185.42c95.98-95.98 253.04-95.98 349.02 0z" fill="url(#a)"/></g><path fill="none" d="M0 0h4800v2886.67H0z"/></svg>