<svg xmlns="http://www.w3.org/2000/svg" width="4.8in" height="277.12" viewBox="0 0 3428.57 2061.9" shape-rendering="geometricPrecision" text-rendering="geometricPrecision" image-rendering="optimizeQuality" fill-rule="evenodd" clip-rule="evenodd"><defs><linearGradient id="id1" gradientUnits="userSpaceOnUse" x1="-387.5" y1="215.4" x2="1581.39" y2="215.4"><stop offset="0" stop-color="#ee9617"/><stop offset="1" stop-color="#fe5858"/></linearGradient><linearGradient id="id2" gradientUnits="userSpaceOnUse" x1="-2.38" y1="1335.9" x2="4247.97" y2="1335.9"><stop offset="0" stop-color="#fe5858"/><stop offset="1" stop-color="#ee9617"/></linearGradient><clipPath id="id0"><path d="M0 0h3428.57v2061.9H0V0z"/></clipPath><style>.fil1{fill:#e6e6e6}</style></defs><g id="Layer_x0020_1"><path fill="#fff" d="M0 0h3428.57v2061.9H0z"/><g clip-path="url(#id0)"><g id="_1950723879104"><path id="1" class="fil1" d="M-45.63 2135.5c182.77-194.29 326.7-249.72 501.82-317.14 85.74-33.01 179.45-69.1 289.72-127.82 58.43-31.12 309.35-152.75 591.43-237.04 162.82-48.65 337.35-85.3 494.65-86.21 334.51-1.92 592.4-363.63 786.7-636.15 27.11-38.02 53.03-74.38 78.88-109.34 106.09-143.46 281.97-243.66 477.5-298.51 208.88-58.6 442.25-65.93 636.49-19.05 14.18 3.42 28.4 10.17 42.49 19.96 79.82 55.48 217.11 268.32 318.37 519.54 100.96 250.45 169.62 543.98 115.97 766.25-14.41 59.71-37.39 114.4-70.52 162.06-142.96 205.66-439.17 429.51-1088.37 545.48-634.79 113.4-1615.91 125.62-3139.8-82.5l-114.28-15.61 78.93-83.91zm43.25 40.69c264.29-280.95 446.02-257.49 776.19-433.34 89.65-47.75 644.13-313.89 1058.41-316.27 414.29-2.38 703.5-486.11 913.02-769.44 203.84-275.64 697.86-380.8 1052.38-295.24 138.09 33.33 642.86 985.71 371.43 1376.19S3030.96 2590.47-2.38 2176.19z"/><path id="2" d="M-2.38 2176.19c264.29-280.95 446.02-257.49 776.19-433.34 89.65-47.75 644.13-313.89 1058.41-316.27 414.29-2.38 703.5-486.11 913.02-769.44 203.84-275.64 697.86-380.8 1052.38-295.24 138.09 33.33 642.86 985.71 371.43 1376.19S3030.96 2590.47-2.38 2176.19z" fill="url(#id2)"/></g></g><path fill="none" d="M0 0h3428.57v2061.9H0z"/></g></svg>