<?xml version="1.0" encoding="utf-8"?>
<svg viewBox="0 0 500 500" xmlns="http://www.w3.org/2000/svg">
  <defs>
    <clipPath id="id0">
      <path d="M4059 6260h15819c636 0 1156 520 1156 1156v3828c0 636-520 1156-1156 1156H4059c-636 0-1156-520-1156-1156V7416c0-636 520-1156 1156-1156z"/>
    </clipPath>
    <clipPath id="id1">
      <path d="M4059 120h15819c636 0 1156 520 1156 1156v3829c0 635-520 1155-1156 1155H4059c-636 0-1156-520-1156-1155V1276c0-636 520-1156 1156-1156z"/>
    </clipPath>
    <clipPath id="id2">
      <path d="M11969 18689H2540a2497 2497 0 0 1-1585-4428 4150 4150 0 0 1-300-1554 4162 4162 0 0 1 5477-3950 6501 6501 0 0 1 11673 0 4157 4157 0 0 1 1315-212 4162 4162 0 0 1 4162 4162 4150 4150 0 0 1-300 1554 2497 2497 0 0 1-1584 4428h-9429z"/>
    </clipPath>
  </defs>
  <g id="Layer_x0020_1" transform="matrix(0.019355, 0, 0, 0.019355, 11.112028, 56.133602)" style="">
    <g id="_505655352992">
      <path d="M4059 6260h15819c636 0 1156 520 1156 1156v3828c0 636-520 1156-1156 1156H4059c-636 0-1156-520-1156-1156V7416c0-636 520-1156 1156-1156z" class="fil0"/>
      <g clip-path="url(#id0)">
        <path id="1" d="M4059 12400c2878-2885 7990-4988 15819-6140 7829-1151 3973-668 4189-18 217 650 1192 6068 1192 6068L9910 14766l-5851-2366z" class="fil1" style="fill: rgb(255, 174, 0); fill-opacity: 0.25098;"/>
      </g>
      <path d="M4059 6260h15819c636 0 1156 520 1156 1156v3828c0 636-520 1156-1156 1156H4059c-636 0-1156-520-1156-1156V7416c0-636 520-1156 1156-1156z" class="fil2 str0" style="fill: none; stroke: rgb(255, 174, 0); stroke-miterlimit: 22.9256; stroke-width: 240.78px;"/>
      <path d="M5142 8165h555v2331h-555zm1568 0h555v2331h-555zm1568 0h555v2331h-555zm1568 0h555v2331h-555zm1568 0h555v2331h-555z" class="fil3" style="fill: rgb(255, 255, 255);"/>
      <circle cx="16698.8" cy="9330.2" r="2057.8" class="fil3" style="fill: rgb(255, 255, 255);"/>
      <path d="M4059 120h15819c636 0 1156 520 1156 1156v3829c0 635-520 1155-1156 1155H4059c-636 0-1156-520-1156-1155V1276c0-636 520-1156 1156-1156z" class="fil0"/>
      <g clip-path="url(#id1)">
        <path d="M4059 6260c2878-2885 7990-4988 15819-6140 7829-1151 3973-668 4189-18 217 650 1192 6068 1192 6068L9910 8626 4059 6260z" class="fil1" style="fill: rgb(255, 174, 0); fill-opacity: 0.25098;"/>
      </g>
      <path d="M4059 120h15819c636 0 1156 520 1156 1156v3829c0 635-520 1155-1156 1155H4059c-636 0-1156-520-1156-1155V1276c0-636 520-1156 1156-1156z" class="fil2 str0" style="fill: none; stroke: rgb(255, 174, 0); stroke-miterlimit: 22.9256; stroke-width: 240.78px;"/>
      <path d="M5142 2025h555v2331h-555zm1568 0h555v2331h-555zm1568 0h555v2331h-555zm1568 0h555v2331h-555zm1568 0h555v2331h-555z" class="fil3" style="fill: rgb(255, 255, 255);"/>
      <circle cx="16698.8" cy="3190.3" r="2057.8" class="fil3" style="fill: rgb(255, 255, 255);"/>
      <path d="M11969 18689H2540a2497 2497 0 0 1-1585-4428 4150 4150 0 0 1-300-1554 4162 4162 0 0 1 5477-3950 6501 6501 0 0 1 11673 0 4157 4157 0 0 1 1315-212 4162 4162 0 0 1 4162 4162 4150 4150 0 0 1-300 1554 2497 2497 0 0 1-1584 4428h-9429z" class="fil4" style="fill: rgb(255, 174, 0);"/>
      <g clip-path="url(#id2)">
        <path d="M2985 19551a2497 2497 0 0 1-1584-4427 4150 4150 0 0 1-300-1554 4162 4162 0 0 1 5477-3950 6501 6501 0 0 1 11672 0 4157 4157 0 0 1 1315-212 4162 4162 0 0 1 4162 4162 4150 4150 0 0 1-300 1554 2497 2497 0 0 1-1584 4428H2985z" class="fil3" style="fill: rgb(255, 255, 255);"/>
      </g>
      <path d="M11969 18689H2540a2497 2497 0 0 1-1585-4428 4150 4150 0 0 1-300-1554 4162 4162 0 0 1 5477-3950 6501 6501 0 0 1 11673 0 4157 4157 0 0 1 1315-212 4162 4162 0 0 1 4162 4162 4150 4150 0 0 1-300 1554 2497 2497 0 0 1-1584 4428h-9429z" class="fil2" style="fill: none;"/>
      <path d="M17765 8896a1986 1986 0 0 1 1265 2508 1987 1987 0 0 1-255 513l34-95a1986 1986 0 0 0-3518-1756 1986 1986 0 0 1 2474-1170z" class="fil4" style="fill: rgb(255, 174, 0);"/>
      <path d="M2540 18689c-1319-53-2373-902-2522-2239-101-900 230-1601 864-2207-481-1365-420-2684 397-3922a4295 4295 0 0 1 4576-1807l195 54c2398-4579 8614-4952 11445-680 154 232 272 443 394 681 1708-430 3388 14 4526 1421a4251 4251 0 0 1 759 3922l-119 332c888 852 1178 2044 562 3151a2402 2402 0 0 1-1661 1225c1612-382 2442-2273 1513-3723-559-873-660-194-423-1023 818-2867-1628-5636-4577-5123-717 125-646 365-910-117-2312-4207-8363-4410-10957-375-466 724-195 721-823 559-3028-781-5746 2048-4888 5056 153 536 217 302-92 611a2444 2444 0 0 0-706 1958c120 1321 1151 2167 2447 2245zm19417-69a3212 3212 0 0 1-412 60l107-7a2537 2537 0 0 0 305-53zm-412 60c-49 4-98 7-148 9l148-9z" class="fil5"/>
      <path d="M2540 18689a2497 2497 0 0 1-1585-4428 4150 4150 0 0 1-300-1554 4162 4162 0 0 1 5477-3950 6501 6501 0 0 1 11673 0 4157 4157 0 0 1 1315-212 4162 4162 0 0 1 4162 4162 4150 4150 0 0 1-300 1554 2497 2497 0 0 1-1584 4428" class="fil2" style="fill: none;"/>
      <path d="M15306 10029c314-858 1088-1402 2004-1383 324 6 753 100 1019 291 964 690 1192 2072 436 3002l-55 66 47-72c545-876 319-2056-575-2605-311-190-613-345-982-381-817-81-1524 364-1894 1082z" class="fil5"/>
      <path d="M15306 10029a1986 1986 0 0 1 3725 1375 1987 1987 0 0 1-321 601" class="fil2" style="fill: none;"/>
      <path d="M 7310 12448.075 C 7390 12448.075 7414 12488.075 7414 12561.075 L 7414 16127.075 C 7414 16215.075 7398 16248.075 7301 16248.075 L 6753 16248.075 L 6753 12448.075 L 7310 12448.075 Z M 8576 12133.075 C 8576 11706.075 8342 11423.075 7882 11423.075 L 5591 11423.075 L 5591 17272.075 L 7665 17272.075 C 8334 17272.075 8576 17014.075 8576 16368.075 L 8576 12133.075 Z M 11811 12448.075 C 11892 12448.075 11916 12488.075 11916 12561.075 L 11916 16127.075 C 11916 16215.075 11900 16248.075 11803 16248.075 L 11359 16248.075 C 11262 16248.075 11246 16215.075 11246 16127.075 L 11246 12561.075 C 11246 12488.075 11271 12448.075 11351 12448.075 L 11811 12448.075 Z M 13102 12182.075 C 13102 11722.075 12860 11423.075 12311 11423.075 L 10859 11423.075 C 10311 11423.075 10068 11722.075 10068 12182.075 L 10068 16441.075 C 10068 16885.075 10254 17272.075 10907 17272.075 L 12263 17272.075 C 12916 17272.075 13102 16885.075 13102 16441.075 L 13102 12181.075 L 13102 12182.075 Z" class="fil6" style="fill-rule: nonzero;"/>
      <path id="2" d="M 16466 16853.075 L 17208 14513.075 L 17208 17272.075 L 18346 17272.075 L 18346 11423.075 L 17103 11423.075 L 16466 13892.075 L 15829 11423.075 L 14594 11423.075 L 14594 17272.075 L 15732 17272.075 L 15732 14513.075 L 16466 16853.075 Z" class="fil6" style="fill-rule: nonzero;"/>
      <path d="M 4444.512 21067.189 L 4414.512 21065.189 C 4394.172 21063.133 4374.078 21059.114 4354.512 21053.189 C 4328.316 21045.111 4302.884 21034.738 4278.512 21022.189 C 4250.512 21008.189 4223.512 20988.189 4197.512 20962.189 C 4100.512 20867.189 4051.512 20726.189 4051.512 20537.189 C 4051.512 20347.189 4100.512 20206.189 4197.512 20114.189 C 4222.231 20088.974 4250.952 20068.025 4282.512 20052.189 C 4308.079 20039.215 4334.879 20028.83 4362.512 20021.189 C 4386.512 20014.189 4406.512 20011.189 4422.512 20011.189 L 4445.512 20010.189 L 4704.512 20010.189 L 4704.512 20112.189 L 4446.512 20112.189 L 4429.512 20113.189 C 4418.512 20114.189 4404.512 20116.189 4386.512 20120.189 C 4342.15 20132.195 4301.554 20155.246 4268.512 20187.189 C 4230.512 20223.189 4202.512 20270.189 4183.512 20329.189 C 4163.512 20388.189 4154.512 20457.189 4154.512 20537.189 C 4154.512 20698.189 4192.512 20815.189 4268.512 20888.189 C 4301.364 20920.385 4342.031 20943.475 4386.512 20955.189 C 4405.735 20960.469 4425.577 20963.16 4445.512 20963.189 L 4704.512 20963.189 L 4704.512 21067.189 L 4444.512 21067.189 Z M 5296.512 21067.189 L 5296.512 20010.189 L 5399.512 20010.189 L 5399.512 20963.189 L 5925.512 20963.189 L 5925.512 21067.189 L 5296.512 21067.189 Z M 6979.512 21067.189 C 6913.512 21067.189 6851.512 21055.189 6794.512 21030.189 C 6739.182 21005.983 6689.47 20970.572 6648.512 20926.189 C 6607.512 20881.189 6575.512 20828.189 6552.512 20767.189 C 6528.809 20702.851 6516.951 20634.752 6517.512 20566.189 L 6517.512 20510.189 C 6517.512 20437.189 6529.512 20370.189 6552.512 20309.189 C 6573.832 20250.433 6606.445 20196.418 6648.512 20150.189 C 6689.512 20106.189 6738.512 20071.189 6795.512 20046.189 C 6853.824 20020.665 6916.861 20007.717 6980.512 20008.189 C 7044.489 20007.696 7107.856 20020.642 7166.512 20046.189 C 7222.087 20070.476 7272.111 20105.867 7313.512 20150.189 C 7356.064 20196.236 7389.036 20250.284 7410.512 20309.189 C 7434.215 20373.527 7446.073 20441.626 7445.512 20510.189 L 7445.512 20566.189 C 7445.512 20638.189 7433.512 20705.189 7410.512 20767.189 C 7389.036 20826.094 7356.064 20880.142 7313.512 20926.189 C 7272.111 20970.511 7222.087 21005.902 7166.512 21030.189 C 7107.473 21055.53 7043.753 21068.138 6979.512 21067.189 Z M 6979.512 20112.189 C 6927.512 20112.189 6879.512 20122.189 6836.512 20142.189 C 6793.205 20161.266 6754.372 20189.199 6722.512 20224.189 C 6689.927 20261.006 6664.795 20303.797 6648.512 20350.189 C 6630.123 20401.507 6620.982 20455.679 6621.512 20510.189 L 6621.512 20566.189 C 6621.512 20624.189 6630.512 20677.189 6648.512 20726.189 C 6664.911 20772.227 6690.037 20814.669 6722.512 20851.189 C 6754.274 20886.541 6793.114 20914.819 6836.512 20934.189 C 6881.576 20953.911 6930.326 20963.797 6979.512 20963.189 C 7032.512 20963.189 7079.512 20953.189 7123.512 20934.189 C 7166.793 20914.617 7205.594 20886.367 7237.512 20851.189 C 7270.512 20816.189 7295.512 20774.189 7312.512 20726.189 C 7330.901 20674.872 7340.043 20620.699 7339.512 20566.189 L 7339.512 20510.189 C 7339.512 20452.189 7330.512 20399.189 7312.512 20350.189 C 7296.095 20303.64 7270.603 20260.813 7237.512 20224.189 C 7205.498 20189.372 7166.704 20161.467 7123.512 20142.189 C 7078.217 20121.984 7029.108 20111.753 6979.512 20112.189 Z" class="fil7 str1" style="fill: none; fill-rule: nonzero; stroke: rgb(254, 254, 254); stroke-miterlimit: 22.9256; stroke-width: 120.39px;"/>
      <path id="3" d="M 8456.512 21064.189 C 8402.512 21064.189 8355.512 21059.189 8315.512 21049.189 C 8279.606 21040.8 8244.97 21027.686 8212.512 21010.189 C 8163.308 20983.381 8121.42 20944.927 8090.512 20898.189 C 8077.779 20879.523 8067.369 20859.375 8059.512 20838.189 C 8052.951 20820.235 8047.606 20801.861 8043.512 20783.189 C 8039.516 20765.129 8037.504 20746.686 8037.512 20728.189 L 8037.512 20010.189 L 8140.512 20010.189 L 8140.512 20739.189 C 8142.924 20761.148 8148.306 20782.678 8156.512 20803.189 C 8162.649 20817.974 8170.36 20832.055 8179.512 20845.189 L 8177.512 20845.189 C 8200.846 20879.652 8232.949 20907.267 8270.512 20925.189 C 8292.512 20936.189 8318.512 20945.189 8349.512 20952.189 C 8384.719 20959.334 8420.591 20962.686 8456.512 20962.189 C 8492.512 20962.189 8524.512 20958.189 8552.512 20952.189 C 8577.24 20946.276 8601.103 20937.201 8623.512 20925.189 C 8644.512 20914.189 8661.512 20901.189 8674.512 20887.189 C 8687.037 20873.73 8698.099 20858.981 8707.512 20843.189 C 8715.823 20830.033 8722.536 20815.933 8727.512 20801.189 L 8737.512 20763.189 C 8740.563 20750.066 8742.239 20736.66 8742.512 20723.189 L 8742.512 20010.189 L 8844.512 20010.189 L 8844.512 20740.189 C 8843.67 20753.282 8842 20766.308 8839.512 20779.189 C 8831.558 20819.468 8817.389 20858.265 8797.512 20894.189 C 8784.457 20915.266 8769.386 20935.025 8752.512 20953.189 C 8732.389 20974.867 8709.131 20993.406 8683.512 21008.189 C 8653.354 21025.573 8621.091 21039.016 8587.512 21048.189 C 8544.793 21059.541 8500.708 21064.926 8456.512 21064.189 Z" class="fil7 str1" style="fill: none; fill-rule: nonzero; stroke: rgb(254, 254, 254); stroke-miterlimit: 22.9256; stroke-width: 120.39px;"/>
      <path id="4" d="M 9437.512 21066.189 L 9437.512 20010.189 L 9841.512 20010.189 C 9890.154 20015.878 9937.486 20029.739 9981.512 20051.189 C 10010.512 20066.189 10039.512 20087.189 10067.512 20114.189 C 10163.512 20206.189 10211.512 20347.189 10211.512 20537.189 C 10211.512 20726.189 10163.512 20867.189 10067.512 20960.189 C 10041.512 20986.189 10014.512 21006.189 9986.512 21020.189 C 9958.512 21034.189 9932.512 21045.189 9908.512 21051.189 C 9879.349 21060.32 9849.061 21065.368 9818.512 21066.189 L 9437.512 21066.189 Z M 9817.512 20963.189 L 9833.512 20962.189 C 9844.512 20962.189 9859.512 20959.189 9876.512 20955.189 C 9896.173 20949.275 9915.253 20941.576 9933.512 20932.189 C 9956.53 20920.729 9977.482 20905.521 9995.512 20887.189 C 10070.512 20814.189 10107.512 20698.189 10107.512 20537.189 C 10107.512 20375.189 10070.512 20259.189 9995.512 20188.189 C 9962.495 20155.479 9921.456 20132.028 9876.512 20120.189 C 9862.439 20116.47 9848.038 20114.126 9833.512 20113.189 L 9817.512 20112.189 L 9539.512 20112.189 L 9539.512 20963.189 L 9817.512 20963.189 Z" class="fil7 str1" style="fill: none; fill-rule: nonzero; stroke: rgb(254, 254, 254); stroke-miterlimit: 22.9256; stroke-width: 120.39px;"/>
      <path id="5" d="M 11823.512 21067.189 L 11823.512 20618.189 L 11339.512 20618.189 L 11339.512 21067.189 L 11237.512 21067.189 L 11237.512 20010.189 L 11340.512 20010.189 L 11340.512 20515.189 L 11824.512 20515.189 L 11824.512 20010.189 L 11926.512 20010.189 L 11926.512 21067.189 L 11823.512 21067.189 Z" class="fil7 str1" style="fill: none; fill-rule: nonzero; stroke: rgb(254, 254, 254); stroke-miterlimit: 22.9256; stroke-width: 120.39px;"/>
      <path id="6" d="M 12981.512 21067.189 C 12914.512 21067.189 12853.512 21055.189 12796.512 21030.189 C 12740.824 21006.103 12690.761 20970.685 12649.512 20926.189 C 12608.512 20881.189 12576.512 20828.189 12553.512 20767.189 C 12529.809 20702.851 12517.951 20634.752 12518.512 20566.189 L 12518.512 20510.189 C 12518.512 20437.189 12530.512 20370.189 12553.512 20309.189 C 12574.832 20250.433 12607.445 20196.418 12649.512 20150.189 C 12690.512 20106.189 12739.512 20071.189 12796.512 20046.189 C 12854.824 20020.665 12917.861 20007.717 12981.512 20008.189 C 13045.489 20007.696 13108.856 20020.642 13167.512 20046.189 C 13223.087 20070.476 13273.111 20105.867 13314.512 20150.189 C 13357.064 20196.236 13390.036 20250.284 13411.512 20309.189 C 13435.215 20373.527 13447.073 20441.626 13446.512 20510.189 L 13446.512 20566.189 C 13446.512 20638.189 13434.512 20705.189 13411.512 20767.189 C 13390.036 20826.094 13357.064 20880.142 13314.512 20926.189 C 13273.111 20970.511 13223.087 21005.902 13167.512 21030.189 C 13108.781 21055.393 13045.417 21067.997 12981.512 21067.189 Z M 12981.512 20112.189 C 12929.512 20112.189 12881.512 20122.189 12837.512 20142.189 C 12794.205 20161.266 12755.372 20189.199 12723.512 20224.189 C 12690.927 20261.006 12665.795 20303.797 12649.512 20350.189 C 12631.123 20401.507 12621.982 20455.679 12622.512 20510.189 L 12622.512 20566.189 C 12622.512 20624.189 12631.512 20677.189 12649.512 20726.189 C 12665.911 20772.227 12691.037 20814.669 12723.512 20851.189 C 12755.274 20886.541 12794.114 20914.819 12837.512 20934.189 C 12882.883 20954.051 12931.99 20963.94 12981.512 20963.189 C 13033.512 20963.189 13081.512 20953.189 13124.512 20934.189 C 13168.151 20914.735 13207.302 20886.478 13239.512 20851.189 C 13271.512 20816.189 13296.512 20774.189 13314.512 20726.189 C 13332.561 20674.81 13341.364 20620.639 13340.512 20566.189 L 13340.512 20510.189 C 13340.512 20452.189 13331.512 20399.189 13314.512 20350.189 C 13298.095 20303.64 13272.603 20260.813 13239.512 20224.189 C 13207.206 20189.261 13168.062 20161.349 13124.512 20142.189 C 13079.525 20122.124 13030.771 20111.896 12981.512 20112.189 Z" class="fil7 str1" style="fill: none; fill-rule: nonzero; stroke: rgb(254, 254, 254); stroke-miterlimit: 22.9256; stroke-width: 120.39px;"/>
      <path id="7" d="M 14082.512 20921.189 C 14082.512 20921.189 14226.512 20967.189 14291.512 20973.189 C 14355.512 20978.189 14411.512 20973.189 14459.512 20957.189 C 14507.512 20941.189 14544.512 20915.189 14571.512 20879.189 C 14598.512 20843.189 14612.512 20798.189 14612.512 20745.189 L 14607.512 20717.189 C 14604.512 20699.189 14592.512 20680.189 14571.512 20658.189 C 14525.512 20611.189 14445.512 20588.189 14331.512 20588.189 L 14305.512 20587.189 C 14290.512 20586.189 14271.512 20583.189 14249.512 20578.189 C 14224.89 20572.195 14200.807 20564.167 14177.512 20554.189 C 14089.964 20513.643 14035.207 20424.614 14038.512 20328.189 C 14038.512 20250.189 14054.512 20187.189 14085.512 20139.189 C 14116.512 20091.189 14161.512 20057.189 14220.512 20036.189 C 14279.512 20015.189 14350.512 20006.189 14433.512 20010.189 C 14515.512 20014.189 14609.512 20028.189 14713.512 20053.189 L 14669.512 20156.189 C 14591.512 20134.189 14520.512 20122.189 14455.512 20117.189 C 14390.512 20113.189 14334.512 20118.189 14287.512 20131.189 C 14241.512 20145.189 14205.512 20167.189 14179.512 20200.189 C 14153.512 20232.189 14141.512 20275.189 14141.512 20328.189 C 14141.512 20371.189 14154.512 20406.189 14180.512 20432.189 C 14194.21 20445.236 14210.126 20455.734 14227.512 20463.189 C 14243.602 20469.941 14260.363 20474.969 14277.512 20478.189 C 14292.512 20481.189 14305.512 20482.189 14316.512 20483.189 L 14331.512 20484.189 C 14475.512 20484.189 14580.512 20518.189 14646.512 20588.189 C 14662.486 20604.449 14675.965 20622.983 14686.512 20643.189 C 14694.6 20658.906 14701.292 20675.302 14706.512 20692.189 C 14711.981 20709.318 14714.682 20727.209 14714.512 20745.189 C 14714.512 20824.189 14698.512 20888.189 14667.512 20936.189 C 14635.512 20984.189 14590.512 21019.189 14531.512 21040.189 C 14472.512 21062.189 14401.512 21071.189 14318.512 21067.189 C 14234.512 21063.189 14141.512 21049.189 14038.512 21024.189 L 14082.512 20921.189 Z" class="fil7 str1" style="fill: none; fill-rule: nonzero; stroke: rgb(254, 254, 254); stroke-miterlimit: 22.9256; stroke-width: 120.39px;"/>
      <path id="8" d="M 15707.512 21069.189 L 15707.512 20112.189 L 15308.512 20112.189 L 15308.512 20008.189 L 16209.512 20008.189 L 16209.512 20112.189 L 15811.512 20112.189 L 15811.512 21069.189 L 15707.512 21069.189 Z" class="fil7 str1" style="fill: none; fill-rule: nonzero; stroke: rgb(254, 254, 254); stroke-miterlimit: 22.9256; stroke-width: 120.39px;"/>
      <path id="9" d="M 16802.512 21067.189 L 16802.512 20010.189 L 16904.512 20010.189 L 16904.512 21067.189 L 16802.512 21067.189 Z" class="fil7 str1" style="fill: none; fill-rule: nonzero; stroke: rgb(254, 254, 254); stroke-miterlimit: 22.9256; stroke-width: 120.39px;"/>
      <path id="10" d="M 17497.512 21069.189 L 17497.512 20050.189 L 17566.512 20016.189 L 18284.512 20868.189 L 18284.512 20008.189 L 18388.512 20008.189 L 18388.512 21040.189 L 18319.512 21073.189 L 17599.512 20221.189 L 17599.512 21069.189 L 17497.512 21069.189 Z" class="fil7 str1" style="fill: none; fill-rule: nonzero; stroke: rgb(254, 254, 254); stroke-miterlimit: 22.9256; stroke-width: 120.39px;"/>
      <path id="11" d="M 19444.512 21069.189 C 19380.536 21069.682 19317.169 21056.736 19258.512 21031.189 C 19202.824 21007.103 19152.761 20971.685 19111.512 20927.189 C 19070.512 20883.189 19038.512 20830.189 19015.512 20768.189 C 18991.809 20703.851 18979.951 20635.752 18980.512 20567.189 L 18980.512 20513.189 C 18980.512 20440.189 18992.512 20373.189 19015.512 20312.189 C 19036.9 20253.167 19069.499 20198.836 19111.512 20152.189 C 19152.512 20107.189 19201.512 20072.189 19258.512 20047.189 C 19317.243 20021.986 19380.607 20009.381 19444.512 20010.189 C 19539.512 20010.189 19625.512 20038.189 19703.512 20096.189 C 19780.512 20153.189 19839.512 20233.189 19882.512 20335.189 L 19789.512 20381.189 C 19755.512 20296.189 19707.512 20231.189 19646.512 20184.189 C 19586.512 20137.189 19518.512 20114.189 19444.512 20114.189 C 19392.512 20114.189 19344.512 20124.189 19300.512 20143.189 C 19257.232 20162.762 19218.431 20191.011 19186.512 20226.189 C 19153.4 20262.797 19127.905 20305.629 19111.512 20352.189 C 19093.129 20403.854 19083.99 20458.353 19084.512 20513.189 L 19084.512 20568.189 C 19084.512 20625.189 19093.512 20679.189 19111.512 20727.189 C 19128.118 20773.649 19153.59 20816.441 19186.512 20853.189 C 19218.236 20888.836 19257.068 20917.449 19300.512 20937.189 C 19345.883 20957.051 19394.99 20966.94 19444.512 20966.189 C 19516.512 20966.189 19579.512 20955.189 19632.512 20934.189 C 19685.512 20913.189 19730.512 20878.189 19766.512 20832.189 L 19766.512 20614.189 L 19532.512 20614.189 L 19532.512 20511.189 L 19870.512 20511.189 L 19869.512 20864.189 C 19771.869 21000.283 19611.805 21077.49 19444.512 21069.189 Z" class="fil7 str1" style="fill: none; fill-rule: nonzero; stroke: rgb(254, 254, 254); stroke-miterlimit: 22.9256; stroke-width: 120.39px;"/>
    </g>
  </g>
</svg>