
<svg xmlns="http://www.w3.org/2000/svg" width="64" viewBox="-200 -1324 24244 22620" shape-rendering="geometricPrecision" text-rendering="geometricPrecision" image-rendering="optimizeQuality" fill-rule="evenodd" clip-rule="evenodd"><defs><clipPath id="id0"><path d="M4059 6260h15819c636 0 1156 520 1156 1156v3828c0 636-520 1156-1156 1156H4059c-636 0-1156-520-1156-1156V7416c0-636 520-1156 1156-1156z"/></clipPath><clipPath id="id1"><path d="M4059 120h15819c636 0 1156 520 1156 1156v3829c0 635-520 1155-1156 1155H4059c-636 0-1156-520-1156-1155V1276c0-636 520-1156 1156-1156z"/></clipPath><clipPath id="id2"><path d="M11969 18689H2540a2497 2497 0 01-1585-4428 4150 4150 0 01-300-1554 4162 4162 0 015477-3950 6501 6501 0 0111673 0 4157 4157 0 011315-212 4162 4162 0 014162 4162 4150 4150 0 01-300 1554 2497 2497 0 01-1584 4428h-9429z"/></clipPath><style>.str0,.str1{stroke-miterlimit:22.9256}.str1{stroke:#000;stroke-width:120.39}.str0{stroke:#ffae00;stroke-width:240.78}.fil2,.fil7{fill:none}.fil7{fill-rule:nonzero}.fil0,.fil5{fill:#000}.fil4{fill:#ffae00}.fil3{fill:#fff}.fil6{fill:#000;fill-rule:nonzero}.fil1{fill:#ffae00;fill-opacity:.25098}</style></defs><g id="Layer_x0020_1"><g id="_505655352992"><path class="fil0" d="M4059 6260h15819c636 0 1156 520 1156 1156v3828c0 636-520 1156-1156 1156H4059c-636 0-1156-520-1156-1156V7416c0-636 520-1156 1156-1156z"/><g clip-path="url(#id0)"><path id="1" class="fil1" d="M4059 12400c2878-2885 7990-4988 15819-6140 7829-1151 3973-668 4189-18 217 650 1192 6068 1192 6068L9910 14766l-5851-2366z"/></g><path class="fil2 str0" d="M4059 6260h15819c636 0 1156 520 1156 1156v3828c0 636-520 1156-1156 1156H4059c-636 0-1156-520-1156-1156V7416c0-636 520-1156 1156-1156z"/><path class="fil3" d="M5142 8165h555v2331h-555zm1568 0h555v2331h-555zm1568 0h555v2331h-555zm1568 0h555v2331h-555zm1568 0h555v2331h-555z"/><circle class="fil3" cx="16698.8" cy="9330.2" r="2057.8"/><path class="fil0" d="M4059 120h15819c636 0 1156 520 1156 1156v3829c0 635-520 1155-1156 1155H4059c-636 0-1156-520-1156-1155V1276c0-636 520-1156 1156-1156z"/><g clip-path="url(#id1)"><path id="1" class="fil1" d="M4059 6260c2878-2885 7990-4988 15819-6140 7829-1151 3973-668 4189-18 217 650 1192 6068 1192 6068L9910 8626 4059 6260z"/></g><path class="fil2 str0" d="M4059 120h15819c636 0 1156 520 1156 1156v3829c0 635-520 1155-1156 1155H4059c-636 0-1156-520-1156-1155V1276c0-636 520-1156 1156-1156z"/><path class="fil3" d="M5142 2025h555v2331h-555zm1568 0h555v2331h-555zm1568 0h555v2331h-555zm1568 0h555v2331h-555zm1568 0h555v2331h-555z"/><circle class="fil3" cx="16698.8" cy="3190.3" r="2057.8"/><path class="fil4" d="M11969 18689H2540a2497 2497 0 01-1585-4428 4150 4150 0 01-300-1554 4162 4162 0 015477-3950 6501 6501 0 0111673 0 4157 4157 0 011315-212 4162 4162 0 014162 4162 4150 4150 0 01-300 1554 2497 2497 0 01-1584 4428h-9429z"/><g clip-path="url(#id2)"><path id="1" class="fil3" d="M2985 19551a2497 2497 0 01-1584-4427 4150 4150 0 01-300-1554 4162 4162 0 015477-3950 6501 6501 0 0111672 0 4157 4157 0 011315-212 4162 4162 0 014162 4162 4150 4150 0 01-300 1554 2497 2497 0 01-1584 4428H2985z"/></g><path class="fil2" d="M11969 18689H2540a2497 2497 0 01-1585-4428 4150 4150 0 01-300-1554 4162 4162 0 015477-3950 6501 6501 0 0111673 0 4157 4157 0 011315-212 4162 4162 0 014162 4162 4150 4150 0 01-300 1554 2497 2497 0 01-1584 4428h-9429z"/><path class="fil4" d="M17765 8896a1986 1986 0 011265 2508 1987 1987 0 01-255 513l34-95a1986 1986 0 00-3518-1756 1986 1986 0 012474-1170z"/><path class="fil5" d="M2540 18689c-1319-53-2373-902-2522-2239-101-900 230-1601 864-2207-481-1365-420-2684 397-3922a4295 4295 0 014576-1807l195 54c2398-4579 8614-4952 11445-680 154 232 272 443 394 681 1708-430 3388 14 4526 1421a4251 4251 0 01759 3922l-119 332c888 852 1178 2044 562 3151a2402 2402 0 01-1661 1225c1612-382 2442-2273 1513-3723-559-873-660-194-423-1023 818-2867-1628-5636-4577-5123-717 125-646 365-910-117-2312-4207-8363-4410-10957-375-466 724-195 721-823 559-3028-781-5746 2048-4888 5056 153 536 217 302-92 611a2444 2444 0 00-706 1958c120 1321 1151 2167 2447 2245zm19417-69a3212 3212 0 01-412 60l107-7a2537 2537 0 00305-53zm-412 60c-49 4-98 7-148 9l148-9z"/><path class="fil2" d="M2540 18689a2497 2497 0 01-1585-4428 4150 4150 0 01-300-1554 4162 4162 0 015477-3950 6501 6501 0 0111673 0 4157 4157 0 011315-212 4162 4162 0 014162 4162 4150 4150 0 01-300 1554 2497 2497 0 01-1584 4428"/><path class="fil5" d="M15306 10029c314-858 1088-1402 2004-1383 324 6 753 100 1019 291 964 690 1192 2072 436 3002l-55 66 47-72c545-876 319-2056-575-2605-311-190-613-345-982-381-817-81-1524 364-1894 1082z"/><path class="fil2" d="M15306 10029a1986 1986 0 013725 1375 1987 1987 0 01-321 601"/><path class="fil6" d="M7310 11884c80 0 104 40 104 113v3566c0 88-16 121-113 121h-548v-3800h557zm1266-315c0-427-234-710-694-710H5591v5849h2074c669 0 911-258 911-904v-4235z"/><path id="1" class="fil6" d="M11811 11884c81 0 105 40 105 113v3566c0 88-16 121-113 121h-444c-97 0-113-33-113-121v-3566c0-73 25-113 105-113h460zm1291-266c0-460-242-759-791-759h-1452c-548 0-791 299-791 759v4259c0 444 186 831 839 831h1356c653 0 839-387 839-831v-4260z"/><path id="2" class="fil6" d="M16466 16289l742-2340v2759h1138v-5849h-1243l-637 2469-637-2469h-1235v5849h1138v-2759z"/><path class="fil7 str1" d="M4446 19216l-30-2a317 317 0 01-60-12 466 466 0 01-76-31c-28-14-55-34-81-60-97-95-146-236-146-425 0-190 49-331 146-423a320 320 0 0185-62 430 430 0 0180-31c24-7 44-10 60-10l23-1h259v102h-258l-17 1c-11 1-25 3-43 7a272 272 0 00-118 67c-38 36-66 83-85 142-20 59-29 128-29 208 0 161 38 278 114 351a265 265 0 00118 67 224 224 0 0059 8h259v104h-260z"/><path id="1" class="fil7 str1" d="M5298 19216v-1057h103v953h526v104z"/><path id="2" class="fil7 str1" d="M6981 19216c-66 0-128-12-185-37a437 437 0 01-146-104c-41-45-73-98-96-159a568 568 0 01-35-201v-56c0-73 12-140 35-201a479 479 0 0196-159c41-44 90-79 147-104a453 453 0 01185-38 457 457 0 01186 38 445 445 0 01147 104 473 473 0 0197 159 568 568 0 0135 201v56c0 72-12 139-35 201a473 473 0 01-97 159 445 445 0 01-147 104 457 457 0 01-187 37zm0-955c-52 0-100 10-143 30a339 339 0 00-114 82 380 380 0 00-74 126 461 461 0 00-27 160v56c0 58 9 111 27 160a380 380 0 0074 125 339 339 0 00114 83 346 346 0 00143 29c53 0 100-10 144-29a347 347 0 00114-83c33-35 58-77 75-125a461 461 0 0027-160v-56c0-58-9-111-27-160a373 373 0 00-75-126 347 347 0 00-114-82 346 346 0 00-144-30z"/><path id="3" class="fil7 str1" d="M8458 19213c-54 0-101-5-141-15a417 417 0 01-103-39 343 343 0 01-122-112 278 278 0 01-31-60 426 426 0 01-16-55 254 254 0 01-6-55v-718h103v729a244 244 0 0016 64 223 223 0 0023 42h-2a234 234 0 0093 80c22 11 48 20 79 27a503 503 0 00107 10c36 0 68-4 96-10a296 296 0 0071-27c21-11 38-24 51-38a260 260 0 0033-44 196 196 0 0020-42l10-38a194 194 0 005-40v-713h102v730a311 311 0 01-5 39 396 396 0 01-42 115 383 383 0 01-45 59 296 296 0 01-69 55 407 407 0 01-96 40 479 479 0 01-131 16z"/><path id="4" class="fil7 str1" d="M9439 19215v-1056h404a435 435 0 01140 41c29 15 58 36 86 63 96 92 144 233 144 423 0 189-48 330-144 423-26 26-53 46-81 60s-54 25-78 31a331 331 0 01-90 15h-381zm380-103l16-1c11 0 26-3 43-7a337 337 0 0057-23 232 232 0 0062-45c75-73 112-189 112-350 0-162-37-278-112-349a265 265 0 00-119-68 225 225 0 00-43-7l-16-1h-278v851h278z"/><path id="5" class="fil7 str1" d="M11825 19216v-449h-484v449h-102v-1057h103v505h484v-505h102v1057z"/><path id="6" class="fil7 str1" d="M12983 19216c-67 0-128-12-185-37a437 437 0 01-147-104c-41-45-73-98-96-159a568 568 0 01-35-201v-56c0-73 12-140 35-201a479 479 0 0196-159c41-44 90-79 147-104a453 453 0 01185-38 457 457 0 01186 38 445 445 0 01147 104 473 473 0 0197 159 568 568 0 0135 201v56c0 72-12 139-35 201a473 473 0 01-97 159 445 445 0 01-147 104 457 457 0 01-186 37zm0-955c-52 0-100 10-144 30a339 339 0 00-114 82 380 380 0 00-74 126 461 461 0 00-27 160v56c0 58 9 111 27 160a380 380 0 0074 125 339 339 0 00114 83 346 346 0 00144 29c52 0 100-10 143-29a347 347 0 00115-83c32-35 57-77 75-125a461 461 0 0026-160v-56c0-58-9-111-26-160a373 373 0 00-75-126 347 347 0 00-115-82 346 346 0 00-143-30z"/><path id="7" class="fil7 str1" d="M14083 19070c75 29 145 46 210 52 64 5 120 0 168-16s85-42 112-78 41-81 41-134l-5-28c-3-18-15-37-36-59-46-47-126-70-240-70l-26-1c-15-1-34-4-56-9a458 458 0 01-72-24 240 240 0 01-139-226c0-78 16-141 47-189s76-82 135-103 130-30 213-26c82 4 176 18 280 43l-44 103c-78-22-149-34-214-39-65-4-121 1-168 14-46 14-82 36-108 69-26 32-38 75-38 128 0 43 13 78 39 104a159 159 0 0047 31 247 247 0 0050 15c15 3 28 4 39 5l15 1c144 0 249 34 315 104a231 231 0 0140 55 302 302 0 0120 49 169 169 0 018 53c0 79-16 143-47 191-32 48-77 83-136 104-59 22-130 31-213 27-84-4-177-18-280-43l44-103z"/><path id="8" class="fil7 str1" d="M15709 19218v-957h-399v-104h901v104h-398v957z"/><path id="9" class="fil7 str1" d="M16804 19216v-1057h102v1057z"/><path id="10" class="fil7 str1" d="M17499 19218v-1019l69-34 718 852v-860h104v1032l-69 33-720-852v848z"/><path id="11" class="fil7 str1" d="M19446 19218a457 457 0 01-186-38 437 437 0 01-147-104c-41-44-73-97-96-159a568 568 0 01-35-201v-54c0-73 12-140 35-201a487 487 0 0196-160c41-45 90-80 147-105a457 457 0 01186-37c95 0 181 28 259 86 77 57 136 137 179 239l-93 46c-34-85-82-150-143-197-60-47-128-70-202-70-52 0-100 10-144 29a347 347 0 00-114 83 372 372 0 00-75 126 467 467 0 00-27 161v55c0 57 9 111 27 159a381 381 0 0075 126 342 342 0 00114 84 346 346 0 00144 29c72 0 135-11 188-32s98-56 134-102v-218h-234v-103h338l-1 353a493 493 0 01-425 205z"/><path id="12" class="fil6" d="M4446 19216l-30-2a317 317 0 01-60-12 466 466 0 01-76-31c-28-14-55-34-81-60-97-95-146-236-146-425 0-190 49-331 146-423a320 320 0 0185-62 430 430 0 0180-31c24-7 44-10 60-10l23-1h259v102h-258l-17 1c-11 1-25 3-43 7a272 272 0 00-118 67c-38 36-66 83-85 142-20 59-29 128-29 208 0 161 38 278 114 351a265 265 0 00118 67 224 224 0 0059 8h259v104h-260z"/><path id="13" class="fil6" d="M5298 19216v-1057h103v953h526v104z"/><path id="14" class="fil6" d="M6981 19216c-66 0-128-12-185-37a437 437 0 01-146-104c-41-45-73-98-96-159a568 568 0 01-35-201v-56c0-73 12-140 35-201a479 479 0 0196-159c41-44 90-79 147-104a453 453 0 01185-38 457 457 0 01186 38 445 445 0 01147 104 473 473 0 0197 159 568 568 0 0135 201v56c0 72-12 139-35 201a473 473 0 01-97 159 445 445 0 01-147 104 457 457 0 01-187 37zm0-955c-52 0-100 10-143 30a339 339 0 00-114 82 380 380 0 00-74 126 461 461 0 00-27 160v56c0 58 9 111 27 160a380 380 0 0074 125 339 339 0 00114 83 346 346 0 00143 29c53 0 100-10 144-29a347 347 0 00114-83c33-35 58-77 75-125a461 461 0 0027-160v-56c0-58-9-111-27-160a373 373 0 00-75-126 347 347 0 00-114-82 346 346 0 00-144-30z"/><path id="15" class="fil6" d="M8458 19213c-54 0-101-5-141-15a417 417 0 01-103-39 343 343 0 01-122-112 278 278 0 01-31-60 426 426 0 01-16-55 254 254 0 01-6-55v-718h103v729a244 244 0 0016 64 223 223 0 0023 42h-2a234 234 0 0093 80c22 11 48 20 79 27a503 503 0 00107 10c36 0 68-4 96-10a296 296 0 0071-27c21-11 38-24 51-38a260 260 0 0033-44 196 196 0 0020-42l10-38a194 194 0 005-40v-713h102v730a311 311 0 01-5 39 396 396 0 01-42 115 383 383 0 01-45 59 296 296 0 01-69 55 407 407 0 01-96 40 479 479 0 01-131 16z"/><path id="16" class="fil6" d="M9439 19215v-1056h404a435 435 0 01140 41c29 15 58 36 86 63 96 92 144 233 144 423 0 189-48 330-144 423-26 26-53 46-81 60s-54 25-78 31a331 331 0 01-90 15h-381zm380-103l16-1c11 0 26-3 43-7a337 337 0 0057-23 232 232 0 0062-45c75-73 112-189 112-350 0-162-37-278-112-349a265 265 0 00-119-68 225 225 0 00-43-7l-16-1h-278v851h278z"/><path id="17" class="fil6" d="M11825 19216v-449h-484v449h-102v-1057h103v505h484v-505h102v1057z"/><path id="18" class="fil6" d="M12983 19216c-67 0-128-12-185-37a437 437 0 01-147-104c-41-45-73-98-96-159a568 568 0 01-35-201v-56c0-73 12-140 35-201a479 479 0 0196-159c41-44 90-79 147-104a453 453 0 01185-38 457 457 0 01186 38 445 445 0 01147 104 473 473 0 0197 159 568 568 0 0135 201v56c0 72-12 139-35 201a473 473 0 01-97 159 445 445 0 01-147 104 457 457 0 01-186 37zm0-955c-52 0-100 10-144 30a339 339 0 00-114 82 380 380 0 00-74 126 461 461 0 00-27 160v56c0 58 9 111 27 160a380 380 0 0074 125 339 339 0 00114 83 346 346 0 00144 29c52 0 100-10 143-29a347 347 0 00115-83c32-35 57-77 75-125a461 461 0 0026-160v-56c0-58-9-111-26-160a373 373 0 00-75-126 347 347 0 00-115-82 346 346 0 00-143-30z"/><path id="19" class="fil6" d="M14083 19070c75 29 145 46 210 52 64 5 120 0 168-16s85-42 112-78 41-81 41-134l-5-28c-3-18-15-37-36-59-46-47-126-70-240-70l-26-1c-15-1-34-4-56-9a458 458 0 01-72-24 240 240 0 01-139-226c0-78 16-141 47-189s76-82 135-103 130-30 213-26c82 4 176 18 280 43l-44 103c-78-22-149-34-214-39-65-4-121 1-168 14-46 14-82 36-108 69-26 32-38 75-38 128 0 43 13 78 39 104a159 159 0 0047 31 247 247 0 0050 15c15 3 28 4 39 5l15 1c144 0 249 34 315 104a231 231 0 0140 55 302 302 0 0120 49 169 169 0 018 53c0 79-16 143-47 191-32 48-77 83-136 104-59 22-130 31-213 27-84-4-177-18-280-43l44-103z"/><path id="20" class="fil6" d="M15709 19218v-957h-399v-104h901v104h-398v957z"/><path id="21" class="fil6" d="M16804 19216v-1057h102v1057z"/><path id="22" class="fil6" d="M17499 19218v-1019l69-34 718 852v-860h104v1032l-69 33-720-852v848z"/><path id="23" class="fil6" d="M19446 19218a457 457 0 01-186-38 437 437 0 01-147-104c-41-44-73-97-96-159a568 568 0 01-35-201v-54c0-73 12-140 35-201a487 487 0 0196-160c41-45 90-80 147-105a457 457 0 01186-37c95 0 181 28 259 86 77 57 136 137 179 239l-93 46c-34-85-82-150-143-197-60-47-128-70-202-70-52 0-100 10-144 29a347 347 0 00-114 83 372 372 0 00-75 126 467 467 0 00-27 161v55c0 57 9 111 27 159a381 381 0 0075 126 342 342 0 00114 84 346 346 0 00144 29c72 0 135-11 188-32s98-56 134-102v-218h-234v-103h338l-1 353a493 493 0 01-425 205z"/></g></g></svg>