<svg xmlns="http://www.w3.org/2000/svg" viewBox="0 0 36466 12957" shape-rendering="geometricPrecision" text-rendering="geometricPrecision" image-rendering="optimizeQuality" fill-rule="evenodd" clip-rule="evenodd"><path d="M24410 12723c7-1715 1-3431 1-5146 0-432-70-915 125-1209 976-1471 2966-2606 3930-991 399 669 347 1368 347 2200 0 1715-7 3431 1 5160l1611-6c7-1737 1-3475 1-5211-1-983-113-922 727-1868 919-1037 2545-1614 3347-247 382 651 327 1414 327 2230 0 726-49 4730 23 5104l1552 1c112-330 43-3769 43-4412 0-1416 115-2824-554-3909-541-879-1725-1457-3158-1167a3281 3281 0 00-1479 712 4179 4179 0 00-550 547c-186 217-368 503-526 605-321-1132-1346-1943-2817-1931-1558 12-2242 883-2999 1718l-6-1499-1558 7 1 9328 1611-16z" fill="#5f5f5f"/><path d="M17 209L0 12701c1864 212 4079 357 5795-194 877-281 1469-687 2026-1148 335-278 1136-1276 1305-1915-387 1-775 30-1162 48-726 33-670-53-887 258-1093 1571-3514 1894-5290 1558l-48-101c-88-300-56-9285-18-9627 1896-165 3752-77 4800 1033 1253 1327 1520 2572 1440 4502 337 73 1450 463 1698 427 379-2911-685-5225-2258-6387C5606-170 2554-149 17 209z" fill="#4b4b4b"/><path d="M19857 5267c-260 204-680 774-946 1075-373 422-15 393 58 1471 187 2754-1886 4278-3960 3514-1190-438-1470-1316-1850-2082l-1677 77c52 628 496 1431 802 1844 1308 1761 3764 2252 5753 1346 3346-1526 2825-6228 1820-7245z" fill="#525252"/><path d="M11328 8031l1671 481c-95-1663 436-2964 1489-3532a3126 3126 0 012127-280c909 220 1075 615 1568 989l811-1460c-2805-2208-7622-945-7666 3802z" fill="#4c4c4c"/></svg>