<svg xmlns="http://www.w3.org/2000/svg" viewBox="0 0 16853 17747" shape-rendering="geometricPrecision" text-rendering="geometricPrecision" image-rendering="optimizeQuality" fill-rule="evenodd" clip-rule="evenodd"><path d="M15475 3794c-472 371-1233 1404-1717 1952-675 764-27 712 106 2669 339 4996-3423 7761-7186 6375-2158-794-2666-2387-3356-3777l-3042 138c93 1141 898 2597 1455 3346 2374 3195 6829 4087 10438 2442 6071-2767 5125-11300 3302-13145z" fill="#525252"/><path d="M0 8810l3033 873c-174-3018 790-5379 2701-6409 1047-564 2524-831 3858-508 1649 399 1952 1115 2845 1795l1473-2650C8819-2095 79 196 0 8810z" fill="#4c4c4c"/></svg>