<svg xmlns="http://www.w3.org/2000/svg" viewBox="0 0 21000 21000" shape-rendering="geometricPrecision" text-rendering="geometricPrecision" image-rendering="optimizeQuality" fill-rule="evenodd" clip-rule="evenodd"><defs><style>.fil4{fill:#454545}.fil6{fill:#464646}</style></defs><g id="Layer_x0020_1"><path d="M13868 11889c4-935 1-1871 1-2806 0-235-39-499 68-659 532-802 1617-1421 2143-541 218 365 189 747 189 1200 0 935-4 1871 0 2814l879-4c4-947 0-1894 0-2841 0-536-61-503 397-1019 501-565 1387-880 1825-134 208 355 178 771 178 1216 0 396-27 2579 13 2783h846c61-180 24-2055 24-2406 0-771 62-1539-303-2131-295-479-940-795-1721-636-333 67-600 214-807 388a2282 2282 0 00-300 298c-101 119-201 274-286 330-176-617-735-1059-1537-1053-849 7-1222 482-1635 937l-3-817-850 3 1 5087 878-9z" fill="#5f5f5f"/><path d="M567 5065l-9 6812c1016 116 2224 194 3160-106 478-153 801-375 1105-626 183-151 619-695 711-1044-211 1-422 16-633 26-396 18-366-29-484 141-596 857-1916 1033-2885 849l-26-55c-47-163-30-5063-10-5249 1034-90 2046-42 2618 563 683 724 829 1403 785 2455 184 40 791 253 926 233 207-1587-374-2849-1231-3482-979-723-2643-712-4027-517z" fill="#4b4b4b"/><path d="M11386 7823c-142 112-371 422-516 587-203 230-9 214 31 802 102 1501-1028 2332-2159 1916-649-239-801-718-1009-1135l-914 41c28 343 270 781 437 1006 714 960 2053 1228 3137 734 1825-832 1541-3396 993-3951z" fill="#525252"/><path d="M6735 9331l911 262c-52-907 238-1617 812-1926 315-169 759-250 1160-153 495 120 586 335 855 540l442-797c-1530-1204-4156-515-4180 2074z" fill="#4c4c4c"/><path class="fil4" d="M19872 14088c34 324 43 949-120 1176-549 763-1406-120-906-905 200-315 538-343 1026-271zm145-137c-367-23-786-94-1069 100-230 158-407 458-396 844 10 350 205 672 472 766 434 154 672-124 849-287 20 345 9 738-173 940-277 310-677 80-848 185l-4 95c236 103 641 51 833-79 171-115 307-333 337-644 41-432 35-1481-1-1920zM8132 14957c-140 929-1376 713-1137-303 119-504 551-670 1052-569 134 28 99 73 97 240-2 178 12 470-12 632zm4-1014c-420 10-692-74-994 170-193 157-357 495-320 873 67 665 767 1021 1309 392 25 246-71 253 153 262v-2573c-37-153-115-141-146 0l-2 876z"/><path d="M10242 14443l1171 7 11 1192 131-12c28-402 4-1342 4-1838 1-497 55-465-110-479-5 8-9 18-11 24l-26 960h-1168l1-855c-9-151 24-120-119-128-81 136-32 2256-23 2327l137-9 2-1189z" fill="#474747"/><path class="fil4" d="M13320 14988c-174 906-1449 634-1215-383 71-308 401-654 796-502 286 109 498 470 419 885zm-1381-31c122 1074 1717 965 1530-315-161-1103-1666-880-1530 315zM3869 14101c395-140 707 208 772 517 90 434-104 799-416 890-882 258-1133-1131-356-1407zm-597 919c166 1043 1774 833 1514-422-81-389-473-802-957-649-375 119-641 541-557 1071z"/><path class="fil6" d="M16875 15630c23-310-35-798 25-1075 55-248 320-495 594-503 787-22 482 987 570 1590l135-10c33-416 60-1195-150-1483-189-261-621-327-926-129l-239 193-21-257-94-3c-71 104-39 1569-24 1688l130-11z"/><path class="fil4" d="M5153 13960c-77 192-18 1243 69 1429 78 168 250 284 496 304 298 24 433-95 576-220 55 156-56 152 118 167 72-80 61-1270 46-1537-11-169 20-115-78-148-104 37-37-47-69 89v946c2 320-189 541-502 559-738 42-473-1038-532-1595l-124 6zM2200 15555c-51-36 7-13-74-29-112-22-308 37-561-2-816-125-755-1395-502-1760 449-647 1188-125 1134-404-18-96-144-73-254-77-929-27-1266 447-1190 1390 68 855 540 1038 1255 1002 172-8 174 20 192-120zM13738 15428c-8 127-28 209 306 264 548 90 816-474 370-836-173-141-565-293-530-549 25-181 146-246 334-238 181 7 273 94 372 155 71-392-968-463-857 184 73 431 861 468 727 944-42 149-166 230-331 224-169-5-276-95-391-148z"/><path class="fil6" d="M14911 13953l-23 130c31 1 93-3 119 0 118 13 56 9 93 31 21 354-7 727 14 1087 16 281 95 436 365 461 217 19 188-53 196-76-234-323-457 558-422-1484l371-9v-138l-368-6c-5-111 12-200-30-281l-94 2c-43 79-25 168-30 280l-191 3z"/><path d="M2676 15648h105c41-384 2-1824 9-2422 5-358 14-223-61-262-79 40-65-98-62 293 4 569-29 2040 9 2391z" fill="#444"/><path class="fil6" d="M16045 13954c-46 110-49 1577 0 1687h119c9-86 44-1580-25-1693l-94 6z"/><path class="fil4" d="M16053 13667l116-5 3-113-134-11z"/></g></svg>